HIERARCHY
ROOT Hips
{
	OFFSET 0.000000 0.000000 0.000000
	CHANNELS 6 Xposition Yposition Zposition Zrotation Yrotation Xrotation 
	JOINT LHipJoint
	{
		OFFSET 0.000000 0.000000 0.000000
		CHANNELS 3 Zrotation Yrotation Xrotation
		JOINT LeftUpLeg
		{
			OFFSET 1.363060 -1.794630 0.839290
			CHANNELS 3 Zrotation Yrotation Xrotation
			JOINT LeftLeg
			{
				OFFSET 2.448110 -6.726130 0.000000
				CHANNELS 3 Zrotation Yrotation Xrotation
				JOINT LeftFoot
				{
					OFFSET 2.562200 -7.039590 0.000000
					CHANNELS 3 Zrotation Yrotation Xrotation
					JOINT LeftToeBase
					{
						OFFSET 0.157640 -0.433110 2.322550
						CHANNELS 3 Zrotation Yrotation Xrotation
						End Site
						{
							OFFSET 0.000000 0.000000 0.000000
						}
					}
				}
			}
		}
	}
	JOINT RHipJoint
	{
		OFFSET 0.000000 0.000000 0.000000
		CHANNELS 3 Zrotation Yrotation Xrotation
		JOINT RightUpLeg
		{
			OFFSET -1.305520 -1.794630 0.839290
			CHANNELS 3 Zrotation Yrotation Xrotation
			JOINT RightLeg
			{
				OFFSET -2.542530 -6.985550 0.000000
				CHANNELS 3 Zrotation Yrotation Xrotation
				JOINT RightFoot
				{
					OFFSET -2.568260 -7.056230 0.000000
					CHANNELS 3 Zrotation Yrotation Xrotation
					JOINT RightToeBase
					{
						OFFSET -0.164730 -0.452590 2.363150
						CHANNELS 3 Zrotation Yrotation Xrotation
						End Site
						{
							OFFSET 0.000000 0.000000 0.000000
						}
					}
				}
			}
		}
	}
	JOINT LowerBack
	{
		OFFSET 0.000000 0.000000 0.000000
		CHANNELS 3 Zrotation Yrotation Xrotation
		JOINT Spine
		{
			OFFSET 0.028270 2.035590 -0.193380
			CHANNELS 3 Zrotation Yrotation Xrotation
			JOINT Spine1
			{
				OFFSET 0.056720 2.048850 -0.042750
				CHANNELS 3 Zrotation Yrotation Xrotation
				JOINT Neck
				{
					OFFSET 0.000000 0.000000 0.000000
					CHANNELS 3 Zrotation Yrotation Xrotation
					JOINT Neck1
					{
						OFFSET -0.054170 1.746240 0.172020
						CHANNELS 3 Zrotation Yrotation Xrotation
						JOINT Head
						{
							OFFSET 0.104070 1.761360 -0.123970
							CHANNELS 3 Zrotation Yrotation Xrotation
							End Site
							{
								OFFSET 0.000000 0.000000 0.000000
							}
						}
					}
				}
				JOINT LeftShoulder
				{
					OFFSET 0.000000 0.000000 0.000000
					CHANNELS 3 Zrotation Yrotation Xrotation
					JOINT LeftArm
					{
						OFFSET 3.362410 1.200890 -0.311210
						CHANNELS 3 Zrotation Yrotation Xrotation
						JOINT LeftForeArm
						{
							OFFSET 4.983000 -0.000000 -0.000000
							CHANNELS 3 Zrotation Yrotation Xrotation
							JOINT LeftHand
							{
								OFFSET 3.483560 -0.000000 -0.000000
								CHANNELS 3 Zrotation Yrotation Xrotation
								JOINT LeftFingerBase
								{
									OFFSET 0.000000 0.000000 0.000000
									CHANNELS 3 Zrotation Yrotation Xrotation
									JOINT LeftHandIndex1
									{
										OFFSET 0.715260 -0.000000 -0.000000
										CHANNELS 3 Zrotation Yrotation Xrotation
										End Site
										{
											OFFSET 0.000000 0.000000 0.000000
										}
									}
								}
								JOINT LThumb
								{
									OFFSET 0.000000 0.000000 0.000000
									CHANNELS 3 Zrotation Yrotation Xrotation
									End Site
									{
										OFFSET 0.000000 0.000000 0.000000
									}
								}
							}
						}
					}
				}
				JOINT RightShoulder
				{
					OFFSET 0.000000 0.000000 0.000000
					CHANNELS 3 Zrotation Yrotation Xrotation
					JOINT RightArm
					{
						OFFSET -3.136600 1.374050 -0.404650
						CHANNELS 3 Zrotation Yrotation Xrotation
						JOINT RightForeArm
						{
							OFFSET -5.241900 -0.000000 -0.000000
							CHANNELS 3 Zrotation Yrotation Xrotation
							JOINT RightHand
							{
								OFFSET -3.444170 -0.000000 -0.000000
								CHANNELS 3 Zrotation Yrotation Xrotation
								JOINT RightFingerBase
								{
									OFFSET 0.000000 0.000000 0.000000
									CHANNELS 3 Zrotation Yrotation Xrotation
									JOINT RightHandIndex1
									{
										OFFSET -0.622530 -0.000000 -0.000000
										CHANNELS 3 Zrotation Yrotation Xrotation
										End Site
										{
											OFFSET 0.000000 0.000000 0.000000
										}
									}
								}
								JOINT RThumb
								{
									OFFSET 0.000000 0.000000 0.000000
									CHANNELS 3 Zrotation Yrotation Xrotation
									End Site
									{
										OFFSET 0.000000 0.000000 0.000000
									}
								}
							}
						}
					}
				}
			}
		}
	}
}
MOTION
Frames: 9
Frame Time: 0.008333
6.290960 15.602925 0.663562 90.958503 -88.858968 -42.476088 -8.687893 -2.478729 -0.741853 -10.809264 -9.209553 -80.796578 1.020759 4.787507 72.532063 2.464520 10.302391 -11.436736 -0.189601 -0.000000 -44.451700 8.436454 1.706278 0.919644 6.396374 10.299189 -70.591229 1.201186 -3.999194 57.596806 -2.121855 -1.895732 -26.242570 1.289499 0.000000 -58.711700 1.037706 -0.659921 4.292009 -0.767120 -0.641163 -1.983912 -5.692875 -0.823927 0.319098 6.444405 0.474384 -5.371482 -3.860263 -0.281160 -0.022013 0.000000 0.000000 0.000000 -5.828870 1.782609 3.942713 -70.624614 -2.420899 11.103150 -2.305599 -18.436882 -0.001156 -1.509410 9.105891 -0.118160 -0.016392 0.044625 -0.000000 0.000000 0.000000 0.000000 0.000000 0.000000 0.000000 16.843099 2.032843 2.559569 71.133676 11.344536 8.549250 2.395304 22.223595 0.012363 2.725403 7.053539 0.171316 0.023504 -0.183393 0.000000 0.000000 0.000000 0.000000 0.000000 0.000000 0.000000 
6.182163 15.694364 0.654972 92.300117 -88.903361 -43.984111 -8.692778 -2.449149 -0.696110 -10.868365 -9.054932 -80.642834 1.091597 4.767157 72.464798 2.496915 10.714762 -10.092622 0.074400 0.000000 -42.578400 8.458285 1.580238 0.996203 6.523499 10.220935 -69.091366 1.335700 -3.787933 55.658225 -2.098886 -1.872370 -25.731392 1.245000 0.000000 -58.940700 1.022991 -0.671778 4.101997 -0.773388 -0.658056 -2.027424 -5.729344 -0.838742 0.371485 6.566655 -0.022418 -5.547568 -3.852744 -0.280127 -0.057938 0.000000 0.000000 0.000000 -5.552192 2.115408 3.928505 -70.664466 -1.136883 11.655685 -2.372321 -19.562369 -0.000330 -2.522457 9.787978 -0.213970 -0.012675 0.036226 -0.000000 0.000000 0.000000 0.000000 0.000000 0.000000 0.000000 16.891405 1.606499 2.506861 71.096071 10.654412 9.793112 2.420900 23.626313 0.012814 2.766748 7.168919 0.176732 0.024992 -0.184606 0.000000 0.000000 0.000000 0.000000 0.000000 0.000000 0.000000 
6.072869 15.780963 0.646686 93.075122 -88.953045 -44.925208 -8.690362 -2.415714 -0.639840 -10.924003 -8.920732 -80.538677 1.141937 4.749886 72.374148 2.540510 11.110857 -9.055029 0.291900 -0.000000 -40.441400 8.478950 1.455946 1.073863 6.662698 10.143608 -67.598880 1.463451 -3.574757 53.723190 -2.078937 -1.870246 -25.211657 1.204000 -0.000000 -59.158800 1.011210 -0.685111 3.898949 -0.779057 -0.676910 -2.072989 -5.767945 -0.855741 0.425928 6.688382 -0.512790 -5.724839 -3.846482 -0.279172 -0.093881 0.000000 0.000000 0.000000 -5.272083 2.416704 3.916412 -70.670321 0.123939 12.247414 -2.432974 -20.727448 0.000095 -3.477750 10.612876 -0.321288 -0.009432 0.027029 0.000000 0.000000 0.000000 0.000000 0.000000 0.000000 0.000000 16.952896 1.186087 2.462949 71.036199 10.029809 10.954948 2.447505 24.962316 0.013292 2.888761 7.134828 0.183645 0.025731 -0.184291 0.000000 0.000000 0.000000 0.000000 0.000000 0.000000 0.000000 
5.963071 15.862827 0.638848 93.254449 -89.008496 -45.273404 -8.680792 -2.375318 -0.574797 -10.979656 -8.804089 -80.461332 1.166861 4.733590 72.215519 2.591549 11.476466 -8.346343 0.453700 -0.000000 -38.190200 8.498778 1.334759 1.147788 6.815670 10.060663 -66.099838 1.586911 -3.359211 51.786058 -2.060008 -1.877637 -24.691267 1.164600 0.000000 -59.353900 1.002447 -0.700245 3.690928 -0.784200 -0.697797 -2.118791 -5.808736 -0.874928 0.480845 6.809456 -0.994539 -5.901969 -3.841507 -0.278286 -0.129757 0.000000 0.000000 0.000000 -4.993532 2.691252 3.904260 -70.645857 1.347830 12.865515 -2.485085 -21.905691 0.000146 -4.343353 11.477688 -0.435309 -0.006730 0.017640 0.000000 0.000000 0.000000 0.000000 0.000000 0.000000 0.000000 17.027308 0.772188 2.427156 70.956836 9.473626 12.045873 2.474947 26.226218 0.013795 3.081795 6.989988 0.192055 0.025780 -0.182827 0.000000 0.000000 0.000000 0.000000 0.000000 0.000000 0.000000 
5.853000 15.940084 0.631463 92.783456 -89.067214 -44.979674 -8.663533 -2.324286 -0.500613 -11.038820 -8.707286 -80.394193 1.163019 4.715946 71.946956 2.646603 11.798564 -7.964006 0.554900 -0.000000 -35.968400 8.518715 1.219325 1.214247 6.980149 9.963780 -64.588509 1.707637 -3.141604 49.849068 -2.040244 -1.883509 -24.179559 1.125600 -0.000000 -59.507600 0.994072 -0.717320 3.482019 -0.789568 -0.720695 -2.164749 -5.852015 -0.896251 0.532594 6.929929 -1.467358 -6.075453 -3.837605 -0.277486 -0.164604 0.000000 0.000000 0.000000 -4.718485 2.923527 3.889797 -70.596774 2.545831 13.481187 -2.526550 -23.085823 -0.000100 -5.094145 12.290590 -0.547934 -0.004549 0.008534 0.000000 0.000000 0.000000 0.000000 0.000000 0.000000 0.000000 17.112904 0.362942 2.400109 70.860379 8.987835 13.091252 2.503074 27.408180 0.014303 3.318630 6.780776 0.200864 0.025420 -0.180637 0.000000 0.000000 0.000000 0.000000 0.000000 0.000000 0.000000 
5.742794 16.012833 0.624710 91.637337 -89.132244 -44.019911 -8.638946 -2.261724 -0.419614 -11.098410 -8.624930 -80.324411 1.128222 4.695233 71.533459 2.701792 12.060975 -7.885472 0.594300 -0.000000 -33.890300 8.538274 1.111275 1.268797 7.157220 9.853752 -63.056577 1.826207 -2.921379 47.912988 -2.019322 -1.885304 -23.682135 1.087100 -0.000000 -59.624000 0.987999 -0.736282 3.281313 -0.794326 -0.745274 -2.207828 -5.895887 -0.919251 0.583295 7.046819 -1.915377 -6.248331 -3.834346 -0.276659 -0.199804 0.000000 0.000000 0.000000 -4.444855 3.165210 3.873394 -70.530527 3.653754 14.126673 -2.559110 -24.215059 -0.000555 -5.719492 12.975930 -0.650557 -0.002953 0.000264 0.000000 0.000000 0.000000 0.000000 0.000000 0.000000 0.000000 17.201896 -0.022842 2.377744 70.758661 8.553462 14.034680 2.530338 28.532337 0.014830 3.618120 6.505907 0.210468 0.024306 -0.177805 0.000000 0.000000 0.000000 0.000000 0.000000 0.000000 0.000000 
5.632427 16.081139 0.618398 89.757262 -89.195734 -42.335027 -8.606275 -2.183367 -0.326951 -11.160063 -8.567313 -80.246942 1.061423 4.668524 70.940148 2.754400 12.252729 -8.062095 0.578301 -0.000000 -32.054000 8.559295 1.013915 1.310315 7.339530 9.720754 -61.512182 1.942151 -2.699757 45.992385 -1.996221 -1.876962 -23.205960 1.049000 0.000000 -59.685000 0.976958 -0.756584 3.084638 -0.800740 -0.771071 -2.251341 -5.941715 -0.943570 0.624774 7.161404 -2.349054 -6.411775 -3.831433 -0.275912 -0.232494 0.000000 0.000000 0.000000 -4.174353 3.343739 3.852446 -70.454157 4.751674 14.718831 -2.579633 -25.328302 -0.001106 -6.209462 13.489470 -0.735280 -0.001693 -0.007109 0.000000 0.000000 0.000000 0.000000 0.000000 0.000000 0.000000 17.295204 -0.400363 2.364657 70.648159 8.182624 14.955905 2.557121 29.567261 0.015334 3.913965 6.236867 0.218574 0.023243 -0.174945 0.000000 0.000000 0.000000 0.000000 0.000000 0.000000 0.000000 
5.522218 16.145190 0.612627 87.166816 -89.260193 -39.948747 -8.566507 -2.090507 -0.225332 -11.217603 -8.527871 -80.156060 0.962549 4.634422 70.143185 2.800602 12.359137 -8.433309 0.516700 -0.000000 -30.524000 8.580261 0.928446 1.334685 7.527474 9.570236 -59.952339 2.054096 -2.476601 44.093704 -1.972072 -1.864855 -22.750464 1.012500 0.000000 -59.715800 0.962036 -0.778304 2.901607 -0.808130 -0.797854 -2.290988 -5.987161 -0.968780 0.663605 7.271988 -2.764477 -6.574807 -3.828265 -0.275052 -0.265803 0.000000 0.000000 0.000000 -3.900480 3.526938 3.828126 -70.374135 5.758507 15.306868 -2.592036 -26.376167 -0.001674 -6.574318 13.808513 -0.797600 -0.000825 -0.013277 0.000000 0.000000 0.000000 0.000000 0.000000 0.000000 0.000000 17.387518 -0.761463 2.356163 70.539544 7.870256 15.801884 2.582603 30.538207 0.015837 4.237720 5.950002 0.226077 0.021786 -0.171914 0.000000 0.000000 0.000000 0.000000 0.000000 0.000000 0.000000 
5.412144 16.205094 0.607300 83.849403 -89.319090 -36.841575 -8.520623 -1.981578 -0.109795 -11.267770 -8.515179 -80.053343 0.832999 4.590276 69.120009 2.837846 12.374198 -8.920449 0.426599 0.000000 -29.365900 8.601118 0.856360 1.341345 7.716053 9.397333 -58.390071 2.160248 -2.253580 42.235144 -1.947369 -1.851759 -22.315697 0.978201 0.000000 -59.713400 0.937726 -0.800809 2.727616 -0.818112 -0.825126 -2.330021 -6.032651 -0.994532 0.692699 7.377760 -3.153303 -6.728163 -3.825072 -0.274215 -0.296892 0.000000 0.000000 0.000000 -3.624925 3.667265 3.800900 -70.294771 6.729055 15.839108 -2.595764 -27.386822 -0.002192 -6.822805 13.940662 -0.836216 -0.000182 -0.018338 0.000000 0.000000 0.000000 0.000000 0.000000 0.000000 0.000000 17.476713 -1.099864 2.354557 70.433017 7.605672 16.597688 2.606291 31.432466 0.016317 4.547248 5.689571 0.232280 0.020401 -0.169148 0.000000 0.000000 0.000000 0.000000 0.000000 0.000000 0.000000 
